# xmcd
#
# Track frame offsets:
# 150
# 10475
# 22165
# 33680
# 46855
# 59470
# 72512
# 85437
# 100442
# 113460
#
# Disc length: 1625 seconds
#
#
# Revision: 0
# Processed by: cddbd v1.5.2PL0 Copyright (c) Steve Scherf et al.
# Submitted via: FreeRIP 2.944 
#
DISCID=8a06570a
DTITLE=Johnny Cash and June Carter Cash - Collections
DYEAR=2006
DGENRE=
TTITLE0=Darlin' Companion (Live at San Quentin)
TTITLE1='Cause I Love You
TTITLE2=Fast Boat Sydney
TTITLE3=What'd I Say
TTITLE4=Jackson
TTITLE5=I Got A Boy and His Name Is John
TTITLE6=Old Time Feeling
TTITLE7=One Way Rider
TTITLE8=No Need To Worry
TTITLE9=No, No, No
EXTD=
EXTT0=
EXTT1=
EXTT2=
EXTT3=
EXTT4=
EXTT5=
EXTT6=
EXTT7=
EXTT8=
EXTT9=
PLAYORDER=
